#!OML:ASF E:\basketball\basketball\Project 1\Capture day 1\Session 1\Subject.ASF
:FULLY-SPECIFIED
:DEGREES
180
root 17.6065 14.0188 4.17443 -326.114 64.1825 -342.67
lowerback 23.1967 0.991647 -5.07755
upperback 10.6629 0.903002 0.668459
thorax -1.27222 0.517783 3.39081
lowerneck -0.495018 -9.27347 -11.7391
upperneck -26.4315 -8.06525 25.7179
head -5.79007 -4.80337 11.0785
rclavicle -2.22639e-014 -3.65764e-014
rhumerus -14.2303 -38.9352 -61.8642
rradius 71.9956
rwrist -39.9662
rhand -25.9199 36.2239
rfingers 7.12502
rthumb 0.623105 6.24507
lclavicle -2.22639e-014 -3.65764e-014
lhumerus -16.1569 -11.6113 101.808
lradius 79.5421
lwrist 18.292
lhand -32.4994 27.7204
lfingers 7.12502
lthumb -5.73088 57.6229
rfemur -32.6108 -11.4227 18.458
rtibia 109.306
rfoot -9.13564 -7.02961
rtoes -10.7233
lfemur -31.7815 12.4026 -30.9619
ltibia 66.6047
lfoot -27.2078 -15.1087
ltoes -12.4755
181
root 17.9749 13.9992 4.42739 -326.515 64.8139 -343.239
lowerback 22.9178 0.273873 -4.84651
upperback 10.5796 0.0516752 0.994235
thorax -1.14798 0.0915828 3.8108
lowerneck 0.540506 -8.67127 -12.6702
upperneck -26.8062 -7.2273 26.1722
head -6.18353 -4.40444 11.5757
rclavicle 5.56597e-015 -9.54166e-015
rhumerus -14.3792 -39.5573 -61.9705
rradius 74.4962
rwrist -44.3503
rhand -23.3288 33.5732
rfingers 7.12502
rthumb 3.12555 3.61638
lclavicle 5.56597e-015 -9.54166e-015
lhumerus -14.0898 -13.1915 101.133
lradius 81.0948
lwrist 17.8973
lhand -33.1069 26.4004
lfingers 7.12502
lthumb -6.31741 56.2862
rfemur -36.251 -9.79621 18.0359
rtibia 111.486
rfoot -8.55899 -9.70498
rtoes -23.4041
lfemur -29.2736 12.7719 -29.3949
ltibia 65.2179
lfoot -26.8957 -16.1488
ltoes -13.0625
182
root 18.3989 14.0459 4.70554 -326.469 65.2973 -343.473
lowerback 22.4727 -0.505945 -4.66191
upperback 10.4114 -0.899582 1.20216
thorax -1.01826 -0.384874 4.14157
lowerneck -0.584316 -8.41566 -12.5345
upperneck -25.3479 -7.15729 25.3248
head -5.61044 -4.2408 11.0224
rclavicle 1.90833e-014 -1.70955e-014
rhumerus -14.2918 -39.9722 -62.4178
rradius 76.4402
rwrist -47.3906
rhand -20.6238 31.359
rfingers 7.12502
rthumb 5.73754 1.45664
lclavicle 1.90833e-014 -1.70955e-014
lhumerus -12.3168 -14.7554 99.9878
lradius 82.6115
lwrist 16.9565
lhand -37.2022 21.9996
lfingers 7.12502
lthumb -10.2698 51.7289
rfemur -42.4359 -7.42617 16.9751
rtibia 112.844
rfoot -9.95907 -8.36706
rtoes -7.24014
lfemur -26.2462 12.9538 -28.025
ltibia 63.0729
lfoot -26.311 -16.9907
ltoes -14.3147
183
root 18.8068 14.0557 4.96943 -326.275 65.7576 -343.478
lowerback 22.0938 -1.38771 -4.5058
upperback 10.1685 -1.99935 1.39863
thorax -0.979 -0.933441 4.49884
lowerneck -0.0289735 -7.77677 -13.6011
upperneck -25.0149 -6.37512 25.6837
head -5.69295 -3.8178 11.4
rclavicle -2.14687e-014 -4.37326e-014
rhumerus -14.267 -39.6592 -62.9854
rradius 78.2191
rwrist -48.7149
rhand -18.2336 29.4021
rfingers 7.12502
rthumb 8.0449 -0.424831
lclavicle -2.14687e-014 -4.37326e-014
lhumerus -10.9225 -15.7889 98.4941
lradius 84.2398
lwrist 15.8646
lhand -32.3215 24.8722
lfingers 7.12502
lthumb -5.5591 54.7793
rfemur -46.4539 -5.95073 15.472
rtibia 113.276
rfoot -10.1951 -9.67249
rtoes -5.69808
lfemur -23.2215 12.958 -26.7878
ltibia 60.7205
lfoot -25.2874 -17.728
ltoes -15.0923
184
root 19.246 14.0938 5.24634 -325.989 66.2189 -343.172
lowerback 21.9782 -2.3519 -4.79868
upperback 9.83236 -3.29278 1.90554
thorax -1.08473 -1.59511 5.49246
lowerneck -1.04257 -6.82102 -13.2611
upperneck -23.3992 -5.5426 23.37
head -5.36508 -3.19477 10.3187
rclavicle 9.38264e-014 -3.37934e-014
rhumerus -14.3308 -38.1108 -63.1792
rradius 80.0098
rwrist -48.6434
rhand -16.4144 28.0155
rfingers 7.12502
rthumb 9.80035 -1.73642
lclavicle 9.38264e-014 -3.37934e-014
lhumerus -10.0635 -15.6105 97.3788
lradius 85.8517
lwrist 13.9915
lhand -32.4794 24.2044
lfingers 7.12502
lthumb -5.71158 54.1075
rfemur -50.2221 -4.69479 13.6224
rtibia 112.678
rfoot -10.9553 -10.6423
rtoes -7.14126
lfemur -19.6084 12.7207 -25.6034
ltibia 57.7391
lfoot -23.6466 -18.4979
ltoes -14.4746
185
root 19.6929 14.1261 5.53126 -325.47 66.4667 -342.682
lowerback 21.7591 -3.23123 -5.30466
upperback 9.49536 -4.51646 2.44639
thorax -1.08112 -2.23405 6.61763
lowerneck -2.05351 -6.01112 -13.6049
upperneck -21.8901 -4.81438 21.648
head -4.963 -2.62935 9.62959
rclavicle 1.53064e-014 -2.78299e-015
rhumerus -14.6335 -36.0766 -63.076
rradius 81.9452
rwrist -47.9091
rhand -14.9982 27.0446
rfingers 7.12502
rthumb 11.1665 -2.63822
lclavicle 1.53064e-014 -2.78299e-015
lhumerus -9.59818 -15.4481 96.4489
lradius 87.3586
lwrist 13.3171
lhand -33.4552 22.09
lfingers 7.12502
lthumb -6.65362 51.9654
rfemur -53.4828 -3.67419 11.4257
rtibia 111.426
rfoot -11.7646 -11.6041
rtoes -8.04889
lfemur -16.0148 12.2485 -24.6658
ltibia 54.4974
lfoot -21.2383 -19.1399
ltoes -12.0814
186
root 20.1525 14.1646 5.82457 -325.096 66.4894 -342.692
lowerback 21.0491 -3.89269 -5.18197
upperback 9.23667 -5.35053 2.51518
thorax -0.888474 -2.6595 6.73934
lowerneck -3.53146 -5.56664 -12.9214
upperneck -20.1831 -4.46096 20.1669
head -4.3634 -2.33203 8.83495
rclavicle 9.54166e-015 -1.78906e-015
rhumerus -15.6363 -34.881 -63.3052
rradius 84.1948
rwrist -47.2336
rhand -13.8704 26.0621
rfingers 7.12502
rthumb 12.2541 -3.55889
lclavicle 9.54166e-015 -1.78906e-015
lhumerus -9.29936 -16.1347 94.7904
lradius 88.7782
lwrist 12.4613
lhand -34.0187 20.5403
lfingers 7.12502
lthumb -7.19762 50.3979
rfemur -56.9842 -2.61374 9.28916
rtibia 109.476
rfoot -12.2679 -12.2558
rtoes -8.62118
lfemur -12.6583 11.7352 -23.8011
ltibia 50.8302
lfoot -18.9272 -18.8512
ltoes -13.1521
